<svg width="360" height="24" viewBox="0 0 360 24" fill="none" xmlns="http://www.w3.org/2000/svg">
<path fill-rule="evenodd" clip-rule="evenodd" d="M0 0V24H360V0H0Z" fill="#04BFAD"/>
<g opacity="0.9">
<path d="M321.696 16H320.042V8.00879L317.602 8.84277V7.44141L321.484 6.0127H321.696V16ZM331.848 16H325.155V14.8584L328.471 11.2422C328.949 10.709 329.289 10.2646 329.489 9.90918C329.694 9.54915 329.797 9.18913 329.797 8.8291C329.797 8.35514 329.662 7.97233 329.394 7.68066C329.129 7.389 328.771 7.24316 328.32 7.24316C327.783 7.24316 327.366 7.40723 327.069 7.73535C326.773 8.06348 326.625 8.51237 326.625 9.08203H324.964C324.964 8.47591 325.101 7.93132 325.374 7.44824C325.652 6.96061 326.046 6.58236 326.557 6.31348C327.072 6.0446 327.664 5.91016 328.334 5.91016C329.3 5.91016 330.061 6.15397 330.617 6.6416C331.178 7.12467 331.458 7.7946 331.458 8.65137C331.458 9.14811 331.317 9.66992 331.034 10.2168C330.756 10.7591 330.298 11.3766 329.66 12.0693L327.227 14.6738H331.848V16ZM334.22 14.25C334.53 14.25 334.769 14.3389 334.938 14.5166C335.106 14.6898 335.19 14.9085 335.19 15.1729C335.19 15.4326 335.106 15.6491 334.938 15.8223C334.769 15.9909 334.53 16.0752 334.22 16.0752C333.924 16.0752 333.689 15.9909 333.516 15.8223C333.342 15.6536 333.256 15.4372 333.256 15.1729C333.256 14.9085 333.34 14.6898 333.509 14.5166C333.677 14.3389 333.914 14.25 334.22 14.25ZM334.22 8.44629C334.53 8.44629 334.769 8.53516 334.938 8.71289C335.106 8.88607 335.19 9.10482 335.19 9.36914C335.19 9.62891 335.106 9.84538 334.938 10.0186C334.769 10.1872 334.53 10.2715 334.22 10.2715C333.924 10.2715 333.689 10.1872 333.516 10.0186C333.342 9.84993 333.256 9.63346 333.256 9.36914C333.256 9.10482 333.34 8.88607 333.509 8.71289C333.677 8.53516 333.914 8.44629 334.22 8.44629ZM338.752 10.2646H339.764C340.274 10.2601 340.677 10.1279 340.974 9.86816C341.274 9.6084 341.425 9.23242 341.425 8.74023C341.425 8.26628 341.299 7.89941 341.049 7.63965C340.803 7.37533 340.424 7.24316 339.914 7.24316C339.467 7.24316 339.101 7.37305 338.813 7.63281C338.526 7.88802 338.383 8.22298 338.383 8.6377H336.722C336.722 8.12728 336.856 7.66243 337.125 7.24316C337.398 6.82389 337.777 6.49805 338.26 6.26562C338.747 6.02865 339.292 5.91016 339.894 5.91016C340.887 5.91016 341.666 6.16081 342.231 6.66211C342.801 7.15885 343.086 7.85156 343.086 8.74023C343.086 9.18685 342.942 9.6084 342.655 10.0049C342.373 10.3968 342.006 10.693 341.555 10.8936C342.102 11.0804 342.516 11.3743 342.799 11.7754C343.086 12.1764 343.229 12.6549 343.229 13.2109C343.229 14.1042 342.922 14.8151 342.307 15.3438C341.696 15.8724 340.892 16.1367 339.894 16.1367C338.937 16.1367 338.153 15.8815 337.542 15.3711C336.931 14.8607 336.626 14.1816 336.626 13.334H338.287C338.287 13.7715 338.433 14.127 338.725 14.4004C339.021 14.6738 339.417 14.8105 339.914 14.8105C340.429 14.8105 340.835 14.6738 341.131 14.4004C341.427 14.127 341.575 13.7305 341.575 13.2109C341.575 12.6868 341.42 12.2835 341.11 12.001C340.8 11.7184 340.34 11.5771 339.729 11.5771H338.752V10.2646ZM351.275 11.8096C351.275 13.2406 351.007 14.3206 350.469 15.0498C349.936 15.7744 349.122 16.1367 348.028 16.1367C346.953 16.1367 346.142 15.7835 345.595 15.0771C345.052 14.3662 344.774 13.3158 344.761 11.9258V10.2031C344.761 8.77214 345.027 7.69889 345.561 6.9834C346.098 6.2679 346.916 5.91016 348.015 5.91016C349.104 5.91016 349.915 6.25879 350.448 6.95605C350.986 7.65332 351.262 8.69694 351.275 10.0869V11.8096ZM349.614 9.9502C349.614 9.01595 349.487 8.33236 349.231 7.89941C348.976 7.46191 348.571 7.24316 348.015 7.24316C347.472 7.24316 347.074 7.45052 346.818 7.86523C346.563 8.27539 346.429 8.91797 346.415 9.79297V12.0488C346.415 12.9785 346.545 13.6712 346.805 14.127C347.064 14.5827 347.472 14.8105 348.028 14.8105C348.562 14.8105 348.956 14.6009 349.211 14.1816C349.466 13.7578 349.601 13.097 349.614 12.1992V9.9502Z" fill="white"/>
</g>
<path fill-rule="evenodd" clip-rule="evenodd" d="M306 5.875V5L303 5V5.875H300V19H309V5.875H306Z" fill="white"/>
<path fill-rule="evenodd" clip-rule="evenodd" d="M277 19H291V5L277 19Z" fill="white"/>
<path fill-rule="evenodd" clip-rule="evenodd" d="M256.977 8.01593L266 19L275.023 8.01593C272.512 6.12256 269.387 5 266 5C262.613 5 259.488 6.12256 256.977 8.01593Z" fill="white"/>
</svg>
